<mxfile host="app.diagrams.net" modified="2022-09-22T15:41:01.472Z" agent="5.0 (Windows NT 10.0; Win64; x64) AppleWebKit/537.36 (KHTML, like Gecko) Chrome/105.0.0.0 Safari/537.36" etag="aJsDd7mwlJVF61pdTrfX" version="20.3.3" type="github">
  <diagram id="-754CRDmmrqLhKDpHSzI" name="PÃ¡gina-1">
    <mxGraphModel dx="1422" dy="794" grid="1" gridSize="10" guides="1" tooltips="1" connect="1" arrows="1" fold="1" page="1" pageScale="1" pageWidth="827" pageHeight="1169" math="0" shadow="0">
      <root>
        <mxCell id="0" />
        <mxCell id="1" parent="0" />
        <mxCell id="MVwELo5M9uHQ74ppUU-r-1" value="Entity" style="whiteSpace=wrap;html=1;align=center;" vertex="1" parent="1">
          <mxGeometry x="40" y="260" width="70" height="20" as="geometry" />
        </mxCell>
        <mxCell id="MVwELo5M9uHQ74ppUU-r-2" value="Entity" style="whiteSpace=wrap;html=1;align=center;" vertex="1" parent="1">
          <mxGeometry x="364" y="260" width="76" height="20" as="geometry" />
        </mxCell>
        <mxCell id="MVwELo5M9uHQ74ppUU-r-3" value="Entity" style="whiteSpace=wrap;html=1;align=center;" vertex="1" parent="1">
          <mxGeometry x="610" y="360" width="70" height="20" as="geometry" />
        </mxCell>
        <mxCell id="MVwELo5M9uHQ74ppUU-r-4" value="Entity" style="whiteSpace=wrap;html=1;align=center;" vertex="1" parent="1">
          <mxGeometry x="610" y="260" width="70" height="20" as="geometry" />
        </mxCell>
        <mxCell id="MVwELo5M9uHQ74ppUU-r-5" value="Entity" style="whiteSpace=wrap;html=1;align=center;" vertex="1" parent="1">
          <mxGeometry x="367" y="360" width="70" height="20" as="geometry" />
        </mxCell>
        <mxCell id="MVwELo5M9uHQ74ppUU-r-6" value="Entity" style="whiteSpace=wrap;html=1;align=center;" vertex="1" parent="1">
          <mxGeometry x="120" y="390" width="70" height="20" as="geometry" />
        </mxCell>
        <mxCell id="MVwELo5M9uHQ74ppUU-r-7" value="Attribute" style="ellipse;whiteSpace=wrap;html=1;align=center;" vertex="1" parent="1">
          <mxGeometry x="371.5" y="480" width="64" height="30" as="geometry" />
        </mxCell>
        <mxCell id="MVwELo5M9uHQ74ppUU-r-8" value="Attribute" style="ellipse;whiteSpace=wrap;html=1;align=center;" vertex="1" parent="1">
          <mxGeometry x="373" y="520" width="64" height="30" as="geometry" />
        </mxCell>
        <mxCell id="MVwELo5M9uHQ74ppUU-r-9" value="Attribute" style="ellipse;whiteSpace=wrap;html=1;align=center;" vertex="1" parent="1">
          <mxGeometry x="371.5" y="560" width="64" height="30" as="geometry" />
        </mxCell>
        <mxCell id="MVwELo5M9uHQ74ppUU-r-10" value="Attribute" style="ellipse;whiteSpace=wrap;html=1;align=center;" vertex="1" parent="1">
          <mxGeometry x="720" y="470" width="64" height="30" as="geometry" />
        </mxCell>
        <mxCell id="MVwELo5M9uHQ74ppUU-r-11" value="Attribute" style="ellipse;whiteSpace=wrap;html=1;align=center;" vertex="1" parent="1">
          <mxGeometry x="720" y="410" width="64" height="30" as="geometry" />
        </mxCell>
        <mxCell id="MVwELo5M9uHQ74ppUU-r-12" value="Attribute" style="ellipse;whiteSpace=wrap;html=1;align=center;" vertex="1" parent="1">
          <mxGeometry x="720" y="360" width="64" height="30" as="geometry" />
        </mxCell>
        <mxCell id="MVwELo5M9uHQ74ppUU-r-13" value="Attribute" style="ellipse;whiteSpace=wrap;html=1;align=center;" vertex="1" parent="1">
          <mxGeometry x="700" y="160" width="64" height="30" as="geometry" />
        </mxCell>
        <mxCell id="MVwELo5M9uHQ74ppUU-r-14" value="Attribute" style="ellipse;whiteSpace=wrap;html=1;align=center;" vertex="1" parent="1">
          <mxGeometry x="700" y="210" width="64" height="30" as="geometry" />
        </mxCell>
        <mxCell id="MVwELo5M9uHQ74ppUU-r-15" value="Attribute" style="ellipse;whiteSpace=wrap;html=1;align=center;" vertex="1" parent="1">
          <mxGeometry x="374.5" y="130" width="64" height="30" as="geometry" />
        </mxCell>
        <mxCell id="MVwELo5M9uHQ74ppUU-r-16" value="Attribute" style="ellipse;whiteSpace=wrap;html=1;align=center;" vertex="1" parent="1">
          <mxGeometry x="376" y="170" width="64" height="30" as="geometry" />
        </mxCell>
        <mxCell id="MVwELo5M9uHQ74ppUU-r-17" value="Attribute" style="ellipse;whiteSpace=wrap;html=1;align=center;" vertex="1" parent="1">
          <mxGeometry x="376" y="210" width="64" height="30" as="geometry" />
        </mxCell>
        <mxCell id="MVwELo5M9uHQ74ppUU-r-18" value="Attribute" style="ellipse;whiteSpace=wrap;html=1;align=center;" vertex="1" parent="1">
          <mxGeometry x="40" y="130" width="64" height="30" as="geometry" />
        </mxCell>
        <mxCell id="MVwELo5M9uHQ74ppUU-r-19" value="Attribute" style="ellipse;whiteSpace=wrap;html=1;align=center;" vertex="1" parent="1">
          <mxGeometry x="30" y="490" width="64" height="30" as="geometry" />
        </mxCell>
        <mxCell id="MVwELo5M9uHQ74ppUU-r-22" value="Attribute" style="ellipse;whiteSpace=wrap;html=1;align=center;" vertex="1" parent="1">
          <mxGeometry x="30" y="530" width="64" height="30" as="geometry" />
        </mxCell>
        <mxCell id="MVwELo5M9uHQ74ppUU-r-23" value="Attribute" style="ellipse;whiteSpace=wrap;html=1;align=center;fontStyle=4;" vertex="1" parent="1">
          <mxGeometry x="367" y="440" width="73" height="30" as="geometry" />
        </mxCell>
        <mxCell id="MVwELo5M9uHQ74ppUU-r-25" value="Attribute" style="ellipse;whiteSpace=wrap;html=1;align=center;fontStyle=4;" vertex="1" parent="1">
          <mxGeometry x="37" y="80" width="72" height="30" as="geometry" />
        </mxCell>
        <mxCell id="MVwELo5M9uHQ74ppUU-r-26" value="Attribute" style="ellipse;whiteSpace=wrap;html=1;align=center;fontStyle=4;" vertex="1" parent="1">
          <mxGeometry x="22" y="440" width="72" height="30" as="geometry" />
        </mxCell>
        <mxCell id="MVwELo5M9uHQ74ppUU-r-27" value="Attribute" style="ellipse;whiteSpace=wrap;html=1;align=center;fontStyle=4;" vertex="1" parent="1">
          <mxGeometry x="370.5" y="80" width="72" height="30" as="geometry" />
        </mxCell>
        <mxCell id="MVwELo5M9uHQ74ppUU-r-29" value="Attribute" style="ellipse;shape=doubleEllipse;margin=3;whiteSpace=wrap;html=1;align=center;" vertex="1" parent="1">
          <mxGeometry x="368.5" y="600" width="70" height="40" as="geometry" />
        </mxCell>
        <mxCell id="MVwELo5M9uHQ74ppUU-r-30" value="Attribute" style="ellipse;shape=doubleEllipse;margin=3;whiteSpace=wrap;html=1;align=center;" vertex="1" parent="1">
          <mxGeometry x="27" y="570" width="70" height="40" as="geometry" />
        </mxCell>
        <mxCell id="MVwELo5M9uHQ74ppUU-r-31" value="Attribute" style="ellipse;shape=doubleEllipse;margin=3;whiteSpace=wrap;html=1;align=center;" vertex="1" parent="1">
          <mxGeometry x="37" y="180" width="70" height="40" as="geometry" />
        </mxCell>
      </root>
    </mxGraphModel>
  </diagram>
</mxfile>
